# xmcd
#
# Track frame offsets:
#	150
#	14127
#	26437
#	47322
#	61112
#	82252
#	102085
#	118990
#	135675
#	154005
#	171275
#	189917
#	207537
#	221367
#	244222
#
# Disc length: 3490 seconds
#
# Revision: 0
# Processed by: cddbd v1.5.1PL2 Copyright (c) Steve Scherf et al.
# Submitted via: audiograbber 1.83.01
#
DISCID=d00da00f
DTITLE=Various Artist - SC 8265 Yesterday's Country Vol 12
DYEAR=1900
DGENRE=Karaoke
TTITLE0=Hal Ketchum - Small Town Saturday Night
TTITLE1=Martina McBride - The Time Has Come
TTITLE2=Garth Brooks - Face To Face
TTITLE3=Vince Gill - Liza Jane
TTITLE4=Reba McEntire - Fallin' Out Of Love
TTITLE5=Restless Heart - I'll Still Be Loving You
TTITLE6=Rhett Akins - What They're Talking About
TTITLE7=Doug Stone  - These Lips Don't Know How To Say Goodbye
TTITLE8=Travis Tritt - Nothing Short Of Dying
TTITLE9=Steve Wariner - Tips Of My Fingers, The
TTITLE10=Suzy Bogguss - Someday Soon
TTITLE11=Sawyer Brown - Walk, The
TTITLE12=George Strait - Lovesick Blues
TTITLE13=Gary Morris - Wind Beneath My Wings, The
TTITLE14=George Jones and Alan Jackson - Good Year For The Roses, A
EXTD=
EXTT0=
EXTT1=
EXTT2=
EXTT3=
EXTT4=
EXTT5=
EXTT6=
EXTT7=
EXTT8=
EXTT9=
EXTT10=
EXTT11=
EXTT12=
EXTT13=
EXTT14=
PLAYORDER=
